<svg width="84" height="85" viewBox="0 0 84 85" fill="#A39473" xmlns="http://www.w3.org/2000/svg">
<path d="M41.6224 0.997502C64.5744 0.997504 83.2449 19.7336 83.2449 42.7566C83.2449 65.7839 64.5701 84.5156 41.6224 84.5156C18.6704 84.5156 -3.65144e-05 65.7795 -3.45082e-05 42.7566C-3.25021e-05 19.7336 18.6704 0.9975 41.6224 0.997502ZM41.6224 81.2412C62.7698 81.2412 79.9757 63.9788 79.9757 42.762C79.9757 21.5452 62.7698 4.2829 41.6224 4.2829C20.475 4.2829 3.26917 21.5452 3.26917 42.762C3.26917 63.9788 20.475 81.2411 41.6224 81.2412Z" fill="#A39473"/>
<path d="M25.5776 41.7074L56.7182 41.7074C57.378 41.7074 57.9133 42.3923 57.9133 43.2365C57.9133 44.0807 57.378 44.7656 56.7182 44.7656L25.5776 44.7656C24.9178 44.7656 24.3825 44.0807 24.3825 43.2365C24.3825 42.3923 24.9178 41.7074 25.5776 41.7074Z" fill="#A39473"/>
<path d="M47.0959 32.5218C47.3627 32.5218 47.6326 32.6074 47.8609 32.7849L51.6987 35.7801L59.0272 42.2238C59.2908 42.4552 59.4419 42.7912 59.4387 43.143C59.4355 43.4948 59.2812 43.8244 59.0112 44.0558L47.7644 53.6345C47.2501 54.0719 46.4691 54.018 46.0223 53.5077C45.5755 52.9974 45.6333 52.2304 46.1508 51.7898L56.3336 43.115L50.1108 37.6412L46.3276 34.6936C45.794 34.2752 45.7008 33.5113 46.1251 32.9851C46.3694 32.6809 46.7294 32.5224 47.0958 32.5224L47.0959 32.5218Z" fill="#A39473"/>
</svg>
