<svg width="100" height="100" viewBox="0 0 100 100" fill="none" xmlns="http://www.w3.org/2000/svg">
<g clip-path="url(#clip0_1254_6458)">
<path d="M87.5 93.7504V67.5004L78.125 65.9379V53.1259H67.187V44.8447L64.062 45.7822V32.3442L57.812 34.2192V15.6252C57.812 11.8752 55.1558 8.75024 51.562 7.96904V3.12524H48.437V7.96904C44.8432 8.75029 42.187 11.8752 42.187 15.6252V30.6252L39.062 31.719V40.1565L35.937 41.094V54.219L32.812 55.1565V57.8127H21.874V65.9377L12.499 67.5002V93.7502H3.12402V96.8752H96.874V93.7502L87.5 93.7504ZM84.375 70.0004V93.7504H78.125V69.0624L84.375 70.0004ZM54.687 93.7504H45.312V87.5004C45.312 84.8442 47.3432 82.8129 49.9995 82.8129C52.6558 82.8129 54.687 84.8441 54.687 87.5004V93.7504ZM49.9995 79.6884C45.6245 79.6884 42.187 83.1259 42.187 87.5009V93.7509H24.999V68.7509H74.999V93.7509H57.811V87.5009C57.811 83.1259 54.3735 79.6884 49.9985 79.6884H49.9995ZM74.9995 65.6264H57.8115V56.2514H74.9995V65.6264ZM49.9995 10.9384C52.6557 10.9384 54.687 12.9696 54.687 15.6259H45.312C45.312 12.9697 47.3432 10.9384 49.9995 10.9384ZM45.312 18.7509H54.687V26.4071L45.312 29.5321V18.7509ZM42.187 33.9069L54.687 29.6881V35.1569L42.187 39.0631V33.9069ZM39.062 43.2819L57.812 37.5007L60.937 36.5632V46.7192L39.062 53.2817V43.2819ZM64.062 48.9069V53.1257H54.687V65.6257H35.937V57.3445L64.062 48.9069ZM32.812 60.9379V65.6254H24.9995V60.9379H32.812ZM15.624 70.0004L21.874 68.9066V93.7506H15.624V70.0004Z" fill="#fff"/>
<path d="M48.4385 20.3124H51.5635V26.5624H48.4385V20.3124Z" fill="#fff"/>
<path d="M53.125 39.0624H56.25V42.1874H53.125V39.0624Z" fill="#fff"/>
<path d="M53.125 43.7504H56.25V46.8754H53.125V43.7504Z" fill="#fff"/>
<path d="M43.75 42.1884H46.875V45.3134H43.75V42.1884Z" fill="#fff"/>
<path d="M43.75 46.8754H46.875V50.0004H43.75V46.8754Z" fill="#fff"/>
<path d="M43.75 56.2504H46.875V59.3754H43.75V56.2504Z" fill="#fff"/>
<path d="M43.75 60.9384H46.875V64.0634H43.75V60.9384Z" fill="#fff"/>
<path d="M64.0625 59.3754H70.3125V62.5004H64.0625V59.3754Z" fill="#fff"/>
<path d="M28.125 79.6885H39.063V70.3135H28.125V79.6885ZM31.25 73.4385H35.9375V76.5635H31.25V73.4385Z" fill="#fff"/>
<path d="M43.75 78.1254H56.25V70.3129H43.75V78.1254ZM46.875 73.4379H53.125V75.0004H46.875V73.4379Z" fill="#fff"/>
<path d="M71.8755 70.3124H60.9375V79.6874H71.8755V70.3124ZM68.7505 76.5624H64.063V73.4374H68.7505V76.5624Z" fill="#fff"/>
<path d="M28.125 92.1885H39.063V82.8135H28.125V92.1885ZM31.25 85.9385H35.9375V89.0635H31.25V85.9385Z" fill="#fff"/>
<path d="M71.8755 82.8124H60.9375V92.1874H71.8755V82.8124ZM68.7505 89.0624H64.063V85.9374H68.7505V89.0624Z" fill="#fff"/>
<path d="M79.6885 71.8754H82.8135V79.6879H79.6885V71.8754Z" fill="#fff"/>
<path d="M79.6885 82.8124H82.8135V90.6249H79.6885V82.8124Z" fill="#fff"/>
<path d="M17.1885 71.8754H20.3135V79.6879H17.1885V71.8754Z" fill="#fff"/>
<path d="M17.1885 82.8124H20.3135V90.6249H17.1885V82.8124Z" fill="#fff"/>
<path d="M45.3975 30.699C45.3975 32.5662 42.6006 32.5662 42.6006 30.699C42.6006 28.8318 45.3975 28.8318 45.3975 30.699Z" fill="#fff"/>
<path d="M57.6016 30.699C57.6016 32.5662 54.8008 32.5662 54.8008 30.699C54.8008 28.8318 57.6016 28.8318 57.6016 30.699Z" fill="#fff"/>
<path d="M57.6016 58.398C57.6016 60.2652 54.8008 60.2652 54.8008 58.398C54.8008 56.5347 57.6016 56.5347 57.6016 58.398Z" fill="#fff"/>
</g>
<defs>
<clipPath id="clip0_1254_6458">
<rect width="100" height="100" fill="white"/>
</clipPath>
</defs>
</svg>
