<svg width="100" height="100" viewBox="0 0 100 100" fill="none" xmlns="http://www.w3.org/2000/svg">
<path d="M50.0005 95C64.3245 94.9922 77.7895 88.1602 86.2625 76.609C94.2977 65.652 96.9505 51.648 93.4813 38.507C90.0086 25.366 80.7863 14.499 68.3873 8.941C55.9853 3.3785 41.7393 3.7183 29.6173 9.86678C17.4963 16.0113 8.80529 27.3078 5.96529 40.5968C3.12549 53.8858 6.44576 67.7488 14.9926 78.3118C23.5434 88.8738 36.4106 95.0068 50.0006 94.9998L50.0005 95ZM68.0005 87C63.9107 89.0039 59.52 90.3086 55.0005 90.8594C66.3205 79.3904 59.0786 55.6404 57.27 50.3594C59.27 47.9024 61.4106 45.5664 63.6802 43.3594C68.2271 49.586 71.0279 56.9184 71.7857 64.5894C72.5474 72.2652 71.2388 79.9994 68.0005 86.9994V87ZM83.0005 74.629C80.3208 78.2032 77.0825 81.3204 73.4107 83.8595C80.5513 62.5895 70.1099 45.6875 66.4888 40.7185C69.899 37.7185 73.8677 34.9802 77.8288 33.7185C80.6022 39.1091 90.4698 60.2495 83.0007 74.6285L83.0005 74.629ZM91.1724 50C91.1685 53.832 90.6294 57.6484 89.5708 61.328C89.352 49.527 84.2192 37.898 81.7427 32.937L81.7388 32.9409C84.149 32.812 86.5161 33.5932 88.3794 35.1206C90.2271 39.8628 91.1724 44.9097 91.1724 49.9996L91.1724 50ZM76.0004 18.141C79.8949 21.3324 83.1762 25.2035 85.6801 29.571C83.977 29.1257 82.2035 29.0007 80.4496 29.1999C68.8716 30.4616 57.0586 44.4299 54.1916 48.0009C49.6291 47.6689 45.1252 46.7939 40.7696 45.3993C42.1016 39.1298 48.8008 16.8093 75.9996 18.1413L76.0004 18.141ZM50.0004 8.8285C57.2192 8.82459 64.3094 10.7308 70.5514 14.3519C46.0004 16.0003 38.8794 37.0709 37.1604 44.1409C32.2268 42.2464 27.4846 39.887 23.0004 37.0901C24.2309 32.6917 29.6293 17.7111 47.8014 8.8911C48.5201 8.85204 49.2623 8.8286 50.0006 8.8286L50.0004 8.8285ZM37.0004 10.9301C28.8285 16.9145 22.7424 25.3051 19.5904 34.9301C16.8795 33.0785 14.8599 31.4887 13.7115 30.5395C18.6998 21.2817 27.0275 14.2695 37.0005 10.9305L37.0004 10.9301ZM12.0004 34.0711C17.5121 38.5516 33.8014 50.3601 53.6484 51.8211C54.8281 55.4383 55.75 59.1336 56.3984 62.8801C33.6714 66.302 13.0894 48.3721 9.17939 44.7201C9.63251 41.0599 10.5817 37.4779 11.9997 34.0721L12.0004 34.0711ZM8.82849 50.0011V49.5792C15.3402 55.1886 31.4695 67.1692 50.4305 67.1692V67.1731C52.6297 67.1731 54.825 67.0091 57.0008 66.6809C57.4578 70.3332 57.4344 74.0325 56.9422 77.6809C39.4732 83.9192 16.3132 69.8801 12.8722 67.6809C10.2199 62.1653 8.83699 56.1219 8.82919 50.0009L8.82849 50.0011ZM47.0515 83.1731C50.0242 83.1887 52.9851 82.8176 55.8601 82.0715C54.6179 86.0403 51.7937 89.3176 48.0515 91.1301C35.7355 90.5285 24.3405 84.4348 17.0005 74.5321C24.0005 78.2118 35.5395 83.1727 47.0515 83.1727V83.1731Z" fill="black"/>
</svg>
