<svg width="100" height="100" viewBox="0 0 100 100" fill="none" xmlns="http://www.w3.org/2000/svg">
<path d="M93.1164 42.07C92.8703 38.5153 92.4211 34.9723 91.7766 31.468C91.6203 30.6282 91.0813 29.9133 90.3157 29.5344C89.5539 29.1555 88.6555 29.1555 87.8938 29.5383C82.3626 32.1789 79.7102 38.5578 81.7376 44.3433C81.9407 44.9292 81.9251 45.5699 81.6946 46.148L80.1673 49.8355C78.9603 49.9839 77.8275 50.5113 76.9446 51.3472L70.6594 57.3081C70.4367 57.5073 70.1477 57.6206 69.8469 57.6284C61.1477 58.0542 56.4209 65.7573 56.4209 70.4334L56.4248 79.6522H55.0928C54.6787 79.6522 54.2803 79.8163 53.9873 80.1092C53.6943 80.4022 53.5303 80.8007 53.5303 81.2147V91.1327C53.5303 91.5468 53.6943 91.9452 53.9873 92.2382C54.2803 92.5312 54.6787 92.6953 55.0928 92.6953H78.6478C79.0619 92.6953 79.4603 92.5312 79.7533 92.2382C80.0463 91.9453 80.2103 91.5468 80.2103 91.1327V81.2147C80.2103 80.8007 80.0463 80.4022 79.7533 80.1092C79.4603 79.8163 79.0619 79.6522 78.6478 79.6522H76.7884V79.6014H76.7923C76.8079 78.9491 77.0775 78.3319 77.5423 77.8787L90.2333 65.4257C91.5106 64.1679 92.331 62.5155 92.5614 60.7382C93.3583 54.5507 93.5458 48.2972 93.1161 42.0702L93.1164 42.07ZM77.0854 89.57H56.6554V82.777H77.0854V89.57ZM89.4604 60.336V60.3399C89.3197 61.4219 88.8236 62.4297 88.0424 63.1954L75.3514 75.6484H75.3553C74.3123 76.6679 73.7069 78.0507 73.6678 79.5078L73.6639 79.6523H59.5509V70.4335C59.5509 67.0429 63.3048 61.078 69.9999 60.7499V60.7538C71.0468 60.7109 72.0429 60.2929 72.8085 59.5741L79.0937 53.6171C79.8554 52.8984 80.9726 52.707 81.9296 53.1289C83.0546 53.6093 82.7147 55.3398 81.9061 56.2539L74.1053 65.0586V65.0625C73.5428 65.7109 73.6053 66.6914 74.2499 67.2578C74.8905 67.8281 75.871 67.7734 76.4452 67.1367L84.246 58.3281C86.3515 55.9453 86.4804 51.9023 83.3358 50.3515L84.5819 47.3437V47.3476C85.1014 46.0742 85.1444 44.6562 84.703 43.3554C83.2264 39.2499 84.9686 34.6796 88.8046 32.5974C89.3749 35.8044 89.7733 39.0388 89.9999 42.2888C90.4139 48.3083 90.2343 54.3548 89.4608 60.3398L89.4604 60.336Z" fill="black"/>
<path d="M44.9057 79.652H43.5776L43.5737 70.4332C43.5737 65.7066 38.8081 58.0542 30.1477 57.6322V57.6283C29.8508 57.6205 29.5617 57.5072 29.3391 57.308L23.0813 51.3744C22.1906 50.5306 21.054 49.9994 19.8352 49.8471L18.304 46.1479C18.0735 45.5737 18.0579 44.9291 18.261 44.3432C20.2883 38.562 17.636 32.1792 12.1087 29.5422C11.347 29.1555 10.4485 29.1516 9.68289 29.5305C8.91729 29.9094 8.37819 30.6282 8.22199 31.468C6.44079 41.1242 6.17509 50.999 7.43683 60.738C7.6673 62.5153 8.48763 64.1677 9.76493 65.4255L22.4529 77.8745C22.9217 78.3315 23.1912 78.9487 23.2068 79.6011V79.6518H21.3513C20.9373 79.6518 20.5388 79.8159 20.2458 80.1089C19.9529 80.4018 19.7888 80.8003 19.7888 81.2144V91.1324C19.7888 91.5464 19.9529 91.9449 20.2458 92.2379C20.5388 92.5308 20.9373 92.6949 21.3513 92.6949H44.9063C45.3204 92.6949 45.7188 92.5308 46.0118 92.2379C46.3048 91.9449 46.4689 91.5465 46.4689 91.1324V81.2144C46.4689 80.8003 46.3048 80.4019 46.0118 80.1089C45.7189 79.8159 45.3204 79.6518 44.9063 79.6518L44.9057 79.652ZM26.3357 79.5075H26.3318C26.2927 78.0505 25.6872 76.6677 24.6443 75.6442L11.9563 63.1952C11.175 62.4295 10.679 61.4218 10.5383 60.3397C9.34295 51.1131 9.56559 41.7577 11.1945 32.5977C15.0304 34.6797 16.7726 39.25 15.2961 43.3557C14.8547 44.6565 14.8977 46.0745 15.4172 47.3479L16.6594 50.3518C13.5891 51.844 13.5852 55.883 15.7688 58.3479L23.554 67.137C24.1282 67.7737 25.1087 67.8284 25.7493 67.258C26.3938 66.6877 26.4563 65.7111 25.8899 65.0627L18.1047 56.2736C17.2922 55.3557 16.9172 53.6214 18.0617 53.1292H18.0656C19.0383 52.7112 20.1672 52.9143 20.9328 53.6409L27.1906 59.5706V59.5745C27.9523 60.2893 28.9484 60.7073 29.9992 60.7542C36.7297 61.0823 40.4522 67.1058 40.4522 70.4339L40.4483 79.6527H26.3353L26.3357 79.5075ZM43.3437 89.5695H22.9137V82.7765H43.3437V89.5695Z" fill="black"/>
<path d="M49.9994 56.25C41.4447 56.2461 33.4834 51.8672 28.8974 44.645C24.3115 37.4262 23.7333 28.36 27.3662 20.614C27.7373 19.8405 28.6631 19.5124 29.4404 19.8757C30.2177 20.2429 30.5537 21.1648 30.1943 21.946C27.0888 28.5398 27.4716 36.251 31.2138 42.512C34.956 48.7698 41.5688 52.754 48.8508 53.137C56.132 53.5237 63.1278 50.2581 67.5108 44.43C71.8897 38.598 73.085 30.973 70.6905 24.082C68.296 17.1953 62.6319 11.953 55.5775 10.098C48.5267 8.23861 41.0155 10.016 35.5385 14.8363C34.894 15.3988 33.9096 15.3324 33.3432 14.6879C32.7768 14.0433 32.8354 13.0629 33.476 12.4926C39.6362 7.06287 48.066 5.00817 56.035 6.98867C63.9998 8.97307 70.488 14.7387 73.387 22.4187C76.2893 30.0984 75.2347 38.7157 70.5667 45.4657C65.8948 52.2196 58.2117 56.2507 50.0007 56.2507L49.9994 56.25Z" fill="black"/>
<path d="M40.6795 13.203C41.4138 12.8241 42.1756 12.4881 42.9529 12.1991C43.7576 11.9061 44.6482 12.3163 44.949 13.121C45.2498 13.9256 44.8435 14.8202 44.0427 15.1288C43.3826 15.3709 42.738 15.6561 42.1169 15.9803C41.3513 16.367 40.4177 16.0663 40.0231 15.3045C39.6286 14.5428 39.9216 13.6053 40.6794 13.2029L40.6795 13.203Z" fill="black"/>
<path d="M30.2725 26.391C31.2725 22.3402 33.4951 18.6957 36.6435 15.953C37.2959 15.3944 38.2764 15.4647 38.8389 16.1092C39.4053 16.7577 39.3428 17.7381 38.7021 18.3084C36.0341 20.6248 34.1513 23.7107 33.3076 27.1404C33.0967 27.9725 32.2529 28.4802 31.417 28.2771C30.585 28.0701 30.0732 27.2263 30.2725 26.3904L30.2725 26.391Z" fill="black"/>
<path d="M61.7031 17.789C53.6093 21.5976 50.9841 17.5429 42.3201 23.0468C37.7615 25.9413 35.8474 31.4491 36.6248 39.4178C36.6482 39.6365 36.66 39.7381 36.6639 39.9334C36.199 40.8279 35.7537 41.7615 35.328 42.7303C34.992 43.5194 35.3514 44.4334 36.1366 44.7772C36.9256 45.121 37.8397 44.7694 38.1913 43.9882C38.5858 43.0936 38.996 42.2304 39.4218 41.4062C39.6444 41.414 39.871 41.4179 40.1327 41.4179V41.414C47.2968 41.5272 54.1837 38.664 59.1597 33.5117C62.4761 29.7109 64.4566 24.9258 64.7964 19.8947C64.8511 19.1251 64.4917 18.3869 63.855 17.9533C63.2183 17.5197 62.398 17.4572 61.7027 17.7892L61.7031 17.789ZM56.8593 31.398L56.8554 31.3941C52.7499 35.6129 47.1601 38.0699 41.2734 38.2418C43.5429 34.5074 46.7695 31.4449 50.6172 29.3707C51.3789 28.9762 51.6797 28.0426 51.293 27.2769C50.9024 26.5113 49.9688 26.2027 49.2032 26.5855C45.3712 28.6011 42.0821 31.5152 39.6251 35.0816C39.8204 30.5855 41.2696 27.4175 43.9962 25.6832C51.3126 21.0387 53.6446 24.3316 61.4922 21.273C60.9727 25.0269 59.3594 28.5464 56.8555 31.394L56.8593 31.398Z" fill="black"/>
<path d="M32.8115 17.188C32.8115 19.27 29.6865 19.27 29.6865 17.188C29.6865 15.106 32.8115 15.106 32.8115 17.188Z" fill="black"/>
</svg>
