<svg width="100" height="100" viewBox="0 0 100 100" fill="none" xmlns="http://www.w3.org/2000/svg">
<path d="M48.8283 35.332C34.7853 51.074 25.6833 70.586 22.6563 91.465L21.8945 96.6603L24.9804 97.1095L25.7422 91.9142C28.6914 71.6412 37.5392 52.6952 51.1722 37.4222L48.8283 35.332Z" fill="black"/>
<path d="M68.75 93.75H73.4375V96.875H68.75V93.75Z" fill="black"/>
<path d="M92.1884 43.75H85.9384V26.562C85.9384 23.105 83.1454 20.312 79.6884 20.312C77.3056 20.312 75.1181 21.6792 74.0634 23.8276C72.8525 22.6948 71.5634 21.6206 70.2157 20.644C74.786 17.519 79.5712 14.7651 84.5707 12.4018L82.1488 17.2456L84.9418 18.6518L90.1957 8.1638L79.7077 2.9294L78.3015 5.7224L84.6882 8.9255C78.653 11.6794 72.8722 14.9802 67.4422 18.7888C65.5281 17.6169 63.536 16.5818 61.4656 15.7224C64.1609 12.6755 65.6453 8.7497 65.6258 4.6874V3.1249H64.0633C59.6492 3.10537 55.411 4.8632 52.2863 8.0077L49.6301 10.6639L36.8761 5.5662C35.1378 4.86308 33.1456 5.27323 31.8175 6.6014L27.13 11.2889L32.7355 14.3944C10.4895 21.3671 -1.91254 45.0394 5.05946 67.2854C7.48136 75.0393 12.1103 81.9334 18.3605 87.1294L20.3527 84.7271C18.0089 82.774 15.8996 80.5474 14.0636 78.1255H14.337C17.6378 78.1255 20.3136 75.4497 20.3136 72.1489C20.3136 71.3872 20.6066 70.6645 21.1534 70.1372L24.8057 66.4849C25.9385 65.3716 26.5635 63.8482 26.5635 62.2466V61.2114C26.5635 59.6294 25.9385 58.1059 24.8057 56.9731L22.9698 55.1372C20.626 52.813 16.8565 52.813 14.5128 55.1372L14.2394 55.4106C13.7121 55.9575 12.9699 56.2505 12.2277 56.2505H6.2902C6.27067 55.7231 6.25113 55.2153 6.25113 54.688C6.25113 53.1255 6.34879 51.563 6.5441 50.0005H12.3058C15.0011 50.0005 17.1886 47.813 17.1886 45.1177C17.1886 43.8286 16.6808 42.5786 15.7628 41.6607L10.7042 36.6021C15.9972 26.4461 25.4892 19.1221 36.6612 16.5821L41.1924 19.1016L31.251 29.043V33.6328L24.6299 30.9766L17.5401 38.0664L26.9346 41.8164L30.6846 51.2109L37.7744 44.1211L35.1182 37.5H39.708L49.6299 27.5781L57.4424 41.6401L62.1299 36.9526C63.458 35.6245 63.8682 33.6323 63.1651 31.894L58.0674 19.14L59.0635 18.1439C60.9971 18.8665 62.8721 19.765 64.669 20.7806C64.044 21.2493 63.419 21.7376 62.794 22.2259L64.7276 24.6868C65.6456 23.9641 66.5635 23.261 67.5206 22.5774C69.6495 24.0618 71.6417 25.7415 73.4386 27.5969V43.7489H67.1886C64.6105 43.7489 62.5011 45.8583 62.5011 48.4364V85.9364C62.5011 87.1278 62.9503 88.2606 63.7511 89.12C61.837 90.1356 59.8644 90.995 57.8136 91.6981V90.3504C57.8136 89.1004 57.3253 87.909 56.4464 87.0301L53.5753 84.1785C53.2823 83.8855 53.1261 83.4949 53.1261 83.0652V81.2488C53.1261 80.3894 53.8292 79.6863 54.6886 79.6863C57.2667 79.6863 59.3761 77.5769 59.3761 74.9988V70.3113C59.3761 67.7332 57.2667 65.6238 54.6886 65.6238H51.2902C50.0402 65.6238 48.8488 66.1121 47.9699 66.991L40.4308 74.5496C40.1378 74.8426 39.7472 74.9988 39.3175 74.9988H37.5011C34.923 74.9988 32.8136 77.1082 32.8136 79.6863V83.0847C32.8136 84.3347 33.3019 85.5261 34.1808 86.405L35.4699 87.6941C35.7628 87.9871 35.9191 88.3777 35.9191 88.8074V92.6355C33.9855 92.1668 32.1105 91.5417 30.2746 90.78L29.0637 93.6706C41.6027 98.8464 55.8607 97.7136 67.4227 90.6237H92.1887C94.7668 90.6237 96.8762 88.5143 96.8762 85.9362V48.4362C96.8762 45.8581 94.7668 43.7487 92.1887 43.7487L92.1884 43.75ZM12.2274 59.375C13.8094 59.375 15.3329 58.75 16.4657 57.6172L16.7391 57.3438C17.8524 56.2305 19.6688 56.2305 20.7821 57.3438L22.618 59.1797C23.1649 59.707 23.4578 60.4492 23.4578 61.1914V62.2266C23.4578 62.9883 23.1649 63.711 22.618 64.2383L18.9461 67.9102C17.8133 69.0235 17.1883 70.5469 17.1883 72.1485C17.1883 73.7305 15.8992 75.0001 14.3367 75.0001H11.9344C9.0438 70.2345 7.1883 64.9021 6.5242 59.3751L12.2274 59.375ZM13.5555 43.887C14.239 44.5706 14.239 45.6839 13.5555 46.3675C13.2234 46.6995 12.7742 46.8753 12.325 46.8753H7.03196C7.53977 44.3948 8.28196 41.9534 9.27806 39.6097L13.5555 43.887ZM31.8175 45.6643L29.3175 39.4338L23.087 36.9338L25.3722 34.6486L31.6027 37.1486L34.1027 43.3791L31.8175 45.6643ZM58.5365 14.2583L54.4154 18.3794L60.2748 33.0474C60.5091 33.6333 60.3724 34.2974 59.9232 34.7271L58.1654 36.4849L50.3529 22.4229L38.4189 34.3759H34.3759V30.3329L46.3289 18.3799L37.2273 13.3213L37.2078 13.2627C37.1882 13.2627 37.1687 13.2627 37.1492 13.2822L32.2664 10.5674L34.0242 8.80964C34.4734 8.36042 35.1375 8.2237 35.7039 8.45808L50.3719 14.3175L54.493 10.2159C56.6219 8.08698 59.3953 6.71978 62.4032 6.34868C62.0321 9.33698 60.6844 12.1299 58.536 14.2589L58.5365 14.2583ZM54.6888 92.6173C49.5716 93.8673 44.2588 94.0821 39.0638 93.2618V88.8087C39.0638 87.5587 38.5755 86.3673 37.6966 85.4884L36.4075 84.1993C36.1145 83.9064 35.9582 83.5157 35.9582 83.086V79.6876C35.9582 78.8282 36.6614 78.1251 37.5207 78.1251H39.3566C40.6066 78.1251 41.798 77.6368 42.6769 76.7579L50.216 69.2188C50.509 68.9259 50.8996 68.7696 51.3293 68.7696H54.6887C55.5481 68.7696 56.2512 69.4727 56.2512 70.3321V75.0196C56.2512 75.879 55.5481 76.5821 54.6887 76.5821C52.1106 76.5821 50.0012 78.6915 50.0012 81.2696V83.1055C50.0012 84.3555 50.4895 85.5469 51.3684 86.4258L54.22 89.2774C54.513 89.5704 54.6693 89.961 54.6693 90.3907V92.6173L54.6888 92.6173ZM76.5638 26.5623C76.5638 24.8435 77.97 23.4373 79.6888 23.4373C81.4076 23.4373 82.8138 24.8435 82.8138 26.5623V43.7503H76.5638V26.5623ZM93.7518 85.9373C93.7518 86.7967 93.0486 87.4998 92.1893 87.4998H67.1893C66.3299 87.4998 65.6268 86.7967 65.6268 85.9373V48.4373C65.6268 47.5779 66.3299 46.8748 67.1893 46.8748H92.1893C93.0486 46.8748 93.7518 47.5779 93.7518 48.4373V85.9373Z" fill="black"/>
<path d="M87.5 93.75H92.1875V96.875H87.5V93.75Z" fill="black"/>
<path d="M70.3125 50H73.4375V84.375H70.3125V50Z" fill="black"/>
<path d="M78.125 50H81.25V84.375H78.125V50Z" fill="black"/>
<path d="M85.9385 50H89.0635V84.375H85.9385V50Z" fill="black"/>
<path d="M46.875 51.562V52.48L43.1055 56.2495C42.5195 56.8354 42.1875 57.6362 42.1875 58.4565V59.3744C42.1875 61.0932 43.5937 62.4994 45.3125 62.4994H49.3555C50.1758 62.4994 50.9766 62.1674 51.5625 61.5815L53.7695 59.3745H56.25C57.9688 59.3745 59.375 57.9683 59.375 56.2495V51.562C59.375 49.8432 57.9688 48.437 56.25 48.437H50C48.2812 48.437 46.875 49.8432 46.875 51.562L46.875 51.562ZM50 52.48V51.562H56.25V56.2495H53.7695C52.9492 56.2495 52.1484 56.5815 51.5625 57.1675L49.3555 59.3745H45.3125V58.4565L49.082 54.687C49.6679 54.1011 49.9999 53.3003 49.9999 52.48L50 52.48Z" fill="black"/>
</svg>
